# xmcd
#
# Track frame offsets: 
#        150
#        14007
#        32486
#        52436
#        67204
#        78287
#        94185
#        110985
#        121851
#        146738
#        166288
#        178768
#        195532
#        211229
#        225742
#        242857
#
# Disc length: 3466 seconds
#
# Revision: 0
# Processed by: cddbd v1.5.2PL0 Copyright (c) Steve Scherf et al.
# Submitted via: ExactAudioCopy v0.99pb5
#
DISCID=ee0d8810
DTITLE=Lost Country - Long Gone Thrill
DYEAR=2005
DGENRE=Alternative
TTITLE0=Make Do With Something New
TTITLE1=Hank Williams' Last Dream
TTITLE2=The Night Cafe
TTITLE3=I Chose The Path of Sorrow and Shame
TTITLE4=Sugar Beet
TTITLE5=Heaven Has A Rope
TTITLE6=It's Too Late To Die Young
TTITLE7=Kissing My Pillow
TTITLE8=Long Gone Thrill
TTITLE9=All These Years
TTITLE10=Shotgun Boogie
TTITLE11=The Crime
TTITLE12=Temporarily Insane
TTITLE13=Too Late To Worry
TTITLE14=Free Floating Anxiety
TTITLE15=Land of The Happy People
EXTD=
EXTT0=
EXTT1=
EXTT2=
EXTT3=
EXTT4=
EXTT5=
EXTT6=
EXTT7=
EXTT8=
EXTT9=
EXTT10=
EXTT11=
EXTT12=
EXTT13=
EXTT14=
EXTT15=
PLAYORDER=
